<svg viewBox="0 0 1200 400" xmlns="http://www.w3.org/2000/svg" role="img" aria-labelledby="title">
  <title id="title">Placeholder cover image — circuit motif</title>
  <defs>
    <linearGradient id="bg1" x1="0" y1="0" x2="1" y2="1">
      <stop offset="0%" stop-color="#171B22"/>
      <stop offset="100%" stop-color="#0a0c10"/>
    </linearGradient>
  </defs>
  <rect width="1200" height="400" fill="url(#bg1)"/>

  <g stroke="#67D9FF" stroke-width="1.5" fill="none" opacity="0.35">
    <path d="M0 80 H320 V180 H620 V60 H900 V240 H1200"/>
    <path d="M0 320 H180 V220 H460 V360 H760 V160 H1040 V320 H1200"/>
    <path d="M140 0 V80 M320 80 V180 M620 180 V60 M900 60 V240 M180 400 V320 M460 220 V360 M760 360 V160 M1040 160 V320"/>
  </g>

  <g fill="#67D9FF" opacity="0.6">
    <circle cx="320" cy="180" r="4"/>
    <circle cx="620" cy="60" r="4"/>
    <circle cx="900" cy="240" r="4"/>
    <circle cx="180" cy="220" r="4"/>
    <circle cx="460" cy="360" r="4"/>
    <circle cx="760" cy="160" r="4"/>
    <circle cx="1040" cy="320" r="4"/>
  </g>

  <rect width="1200" height="400" fill="none" stroke="#67D9FF" stroke-opacity="0.08" stroke-width="60"/>

  <text x="600" y="210" text-anchor="middle" font-family="'JetBrains Mono', monospace" font-size="15" letter-spacing="3" fill="#5D6472">COVER IMAGE PLACEHOLDER — SWAP ME</text>
</svg>
